<svg width="31" height="31" viewBox="0 0 31 31" fill="none" xmlns="http://www.w3.org/2000/svg">
<path d="M28.4999 22.8H24.6999V19H22.7999V22.8H18.9999V24.7H22.7999V28.5H24.6999V24.7H28.4999V22.8Z" fill="white"/>
<path d="M14.6299 28.5L4.74993 22.61C4.17993 22.23 3.79993 21.66 3.79993 20.995V9.40499C3.79993 8.73999 4.17993 8.07499 4.74993 7.78999L14.2499 2.18499C14.5349 1.99499 14.8199 1.89999 15.1999 1.89999C15.5799 1.89999 15.8649 1.99499 16.1499 2.18499L25.6499 7.78999C26.2199 8.16999 26.5999 8.73999 26.5999 9.40499V15.2H24.6999V9.40499L15.1999 3.79999L5.69993 9.40499V20.995L15.6749 26.885L14.6299 28.5Z" fill="white"/>
</svg>
