<svg width="31" height="31" viewBox="0 0 31 31" fill="none" xmlns="http://www.w3.org/2000/svg">
<path d="M24.0667 3.8H22.8V1.26667H20.2667V3.8H10.1333V1.26667H7.59999V3.8H6.33332C4.93999 3.8 3.79999 4.94 3.79999 6.33334V24.0667C3.79999 25.46 4.93999 26.6 6.33332 26.6H24.0667C25.46 26.6 26.6 25.46 26.6 24.0667V6.33334C26.6 4.94 25.46 3.8 24.0667 3.8ZM24.0667 24.0667H6.33332V11.4H24.0667V24.0667ZM6.33332 8.86667V6.33334H24.0667V8.86667H6.33332ZM13.376 22.116L20.8873 14.6047L19.5447 13.262L13.376 19.4307L10.7033 16.758L9.36065 18.1007L13.376 22.116Z" fill="white"/>
</svg>
