<svg width="31" height="31" viewBox="0 0 31 31" fill="none" xmlns="http://www.w3.org/2000/svg">
<path d="M8.35992 10.64C8.56148 10.64 8.75479 10.5599 8.89732 10.4174C9.03985 10.2748 9.11992 10.0815 9.11992 9.87997C9.11992 9.6784 9.03985 9.48509 8.89732 9.34257C8.75479 9.20004 8.56148 9.11997 8.35992 9.11997C8.15835 9.11997 7.96504 9.20004 7.82252 9.34257C7.67999 9.48509 7.59992 9.6784 7.59992 9.87997C7.59992 10.0815 7.67999 10.2748 7.82252 10.4174C7.96504 10.5599 8.15835 10.64 8.35992 10.64ZM7.59992 15.2C7.59992 14.9984 7.67999 14.8051 7.82252 14.6626C7.96504 14.52 8.15835 14.44 8.35992 14.44H12.9199C13.1215 14.44 13.3148 14.52 13.4573 14.6626C13.5998 14.8051 13.6799 14.9984 13.6799 15.2C13.6799 15.4015 13.5998 15.5948 13.4573 15.7374C13.3148 15.8799 13.1215 15.96 12.9199 15.96H8.35992C8.15835 15.96 7.96504 15.8799 7.82252 15.7374C7.67999 15.5948 7.59992 15.4015 7.59992 15.2ZM8.35992 19.76C8.15835 19.76 7.96504 19.84 7.82252 19.9826C7.67999 20.1251 7.59992 20.3184 7.59992 20.52C7.59992 20.7215 7.67999 20.9148 7.82252 21.0574C7.96504 21.1999 8.15835 21.28 8.35992 21.28H12.9199C13.1215 21.28 13.3148 21.1999 13.4573 21.0574C13.5998 20.9148 13.6799 20.7215 13.6799 20.52C13.6799 20.3184 13.5998 20.1251 13.4573 19.9826C13.3148 19.84 13.1215 19.76 12.9199 19.76H8.35992ZM6.07992 25.84H18.9528C19.9408 25.8704 20.9486 25.2897 21.2358 24.0509L21.8788 21.28H25.0799C25.6846 21.28 26.2645 21.0398 26.6921 20.6122C27.1197 20.1846 27.3599 19.6047 27.3599 19V11.5246C27.3599 10.0304 26.2184 9.15341 25.0556 9.11997H18.2399V6.83997C18.2399 6.23527 17.9997 5.65535 17.5721 5.22776C17.1445 4.80018 16.5646 4.55997 15.9599 4.55997H5.31992C4.71522 4.55997 4.1353 4.80018 3.70771 5.22776C3.28013 5.65535 3.03992 6.23527 3.03992 6.83997V22.8C3.03992 23.6062 3.3602 24.3795 3.93031 24.9496C4.50042 25.5197 5.27366 25.84 6.07992 25.84ZM4.55992 6.83997C4.55992 6.6384 4.63999 6.44509 4.78252 6.30257C4.92504 6.16004 5.11835 6.07997 5.31992 6.07997H15.9599C16.1615 6.07997 16.3548 6.16004 16.4973 6.30257C16.6398 6.44509 16.7199 6.6384 16.7199 6.83997V23.5326C16.7199 23.8214 16.764 24.0844 16.8415 24.32H6.07992C5.67679 24.32 5.29017 24.1598 5.00511 23.8748C4.72006 23.5897 4.55992 23.2031 4.55992 22.8V6.83997ZM25.0799 19.76H22.233L24.1892 11.3361C24.4142 10.3664 25.8399 10.5305 25.8399 11.5246V19C25.8399 19.2015 25.7598 19.3948 25.6173 19.5374C25.4748 19.6799 25.2815 19.76 25.0799 19.76ZM18.2399 10.64H22.8151C22.7741 10.7509 22.7391 10.868 22.7087 10.9911L19.7554 23.7074C19.5486 24.5966 18.2399 24.4461 18.2399 23.5326V10.64Z" fill="white"/>
</svg>
