<svg width="85" height="82" viewBox="0 0 85 82" fill="none" xmlns="http://www.w3.org/2000/svg">
<rect width="85" height="82" fill="#FFAEAA"/>
<path d="M15.5 61.0001V54.0001C15.5 52.5834 15.865 51.2809 16.595 50.0926C17.325 48.9042 18.2933 47.9984 19.5 47.3751C22.0833 46.0834 24.7083 45.1142 27.375 44.4676C30.0417 43.8209 32.75 43.4984 35.5 43.5001C38.25 43.5001 40.9583 43.8234 43.625 44.4701C46.2917 45.1167 48.9167 46.0851 51.5 47.3751C52.7083 48.0001 53.6775 48.9067 54.4075 50.0951C55.1375 51.2834 55.5017 52.5851 55.5 54.0001V61.0001H15.5ZM60.5 61.0001V53.5001C60.5 51.6667 59.9892 49.9059 58.9675 48.2176C57.9458 46.5292 56.4983 45.0817 54.625 43.8751C56.75 44.1251 58.75 44.5526 60.625 45.1576C62.5 45.7626 64.25 46.5017 65.875 47.3751C67.375 48.2084 68.5208 49.1351 69.3125 50.1551C70.1042 51.1751 70.5 52.2901 70.5 53.5001V61.0001H60.5ZM35.5 41.0001C32.75 41.0001 30.3958 40.0209 28.4375 38.0626C26.4792 36.1042 25.5 33.7501 25.5 31.0001C25.5 28.2501 26.4792 25.8959 28.4375 23.9376C30.3958 21.9792 32.75 21.0001 35.5 21.0001C38.25 21.0001 40.6042 21.9792 42.5625 23.9376C44.5208 25.8959 45.5 28.2501 45.5 31.0001C45.5 33.7501 44.5208 36.1042 42.5625 38.0626C40.6042 40.0209 38.25 41.0001 35.5 41.0001ZM60.5 31.0001C60.5 33.7501 59.5208 36.1042 57.5625 38.0626C55.6042 40.0209 53.25 41.0001 50.5 41.0001C50.0417 41.0001 49.4583 40.9476 48.75 40.8426C48.0417 40.7376 47.4583 40.6234 47 40.5001C48.125 39.1667 48.99 37.6876 49.595 36.0626C50.2 34.4376 50.5017 32.7501 50.5 31.0001C50.5 29.2501 50.1983 27.5626 49.595 25.9376C48.9917 24.3126 48.1267 22.8334 47 21.5001C47.5833 21.2917 48.1667 21.1559 48.75 21.0926C49.3333 21.0292 49.9167 20.9984 50.5 21.0001C53.25 21.0001 55.6042 21.9792 57.5625 23.9376C59.5208 25.8959 60.5 28.2501 60.5 31.0001Z" fill="#FFFCF4"/>
</svg>
