<svg width="31" height="31" viewBox="0 0 31 31" fill="none" xmlns="http://www.w3.org/2000/svg">
<path d="M1.26666 25.3333V21.7867C1.26666 21.0689 1.4516 20.4089 1.82146 19.8069C2.19048 19.2056 2.68111 18.7467 3.29333 18.43C4.60222 17.7755 5.93222 17.2845 7.28333 16.9569C8.63444 16.6301 10.0067 16.4667 11.4 16.4667C12.7933 16.4667 14.1656 16.6301 15.5167 16.9569C16.8678 17.2845 18.1978 17.7755 19.5067 18.43C20.1189 18.7467 20.6095 19.2056 20.9785 19.8069C21.3484 20.4089 21.5333 21.0689 21.5333 21.7867V25.3333H1.26666ZM24.0667 25.3333V21.5333C24.0667 20.6044 23.8083 19.7123 23.2915 18.8569C22.7738 18.0023 22.04 17.2689 21.09 16.6566C22.1667 16.7833 23.18 16.9995 24.13 17.3052C25.08 17.6117 25.9667 17.9867 26.79 18.43C27.55 18.8522 28.1306 19.3217 28.5317 19.8385C28.9328 20.3562 29.1333 20.9211 29.1333 21.5333V25.3333H24.0667ZM11.4 15.2C10.0067 15.2 8.81389 14.7039 7.82166 13.7117C6.82944 12.7194 6.33333 11.5267 6.33333 10.1333C6.33333 8.73998 6.82944 7.54721 7.82166 6.55498C8.81389 5.56276 10.0067 5.06665 11.4 5.06665C12.7933 5.06665 13.9861 5.56276 14.9783 6.55498C15.9706 7.54721 16.4667 8.73998 16.4667 10.1333C16.4667 11.5267 15.9706 12.7194 14.9783 13.7117C13.9861 14.7039 12.7933 15.2 11.4 15.2ZM24.0667 10.1333C24.0667 11.5267 23.5706 12.7194 22.5783 13.7117C21.5861 14.7039 20.3933 15.2 19 15.2C18.7678 15.2 18.4722 15.1738 18.1133 15.1214C17.7544 15.0682 17.4589 15.01 17.2267 14.9467C17.7967 14.2711 18.2345 13.5216 18.5402 12.6983C18.8467 11.875 19 11.02 19 10.1333C19 9.24665 18.8467 8.39165 18.5402 7.56832C18.2345 6.74498 17.7967 5.99554 17.2267 5.31998C17.5222 5.21443 17.8178 5.14561 18.1133 5.11352C18.4089 5.08227 18.7044 5.06665 19 5.06665C20.3933 5.06665 21.5861 5.56276 22.5783 6.55498C23.5706 7.54721 24.0667 8.73998 24.0667 10.1333Z" fill="#010101"/>
</svg>
