<svg width="27" height="27" viewBox="0 0 27 27" fill="none" xmlns="http://www.w3.org/2000/svg">
<path d="M11.8751 13.3C11.8751 13.6779 12.0252 14.0404 12.2925 14.3076C12.5597 14.5749 12.9222 14.725 13.3001 14.725C13.678 14.725 14.0405 14.5749 14.3077 14.3076C14.575 14.0404 14.7251 13.6779 14.7251 13.3C14.7251 12.9221 14.575 12.5596 14.3077 12.2924C14.0405 12.0251 13.678 11.875 13.3001 11.875C12.9222 11.875 12.5597 12.0251 12.2925 12.2924C12.0252 12.5596 11.8751 12.9221 11.8751 13.3ZM17.8126 13.3C17.8126 13.6779 17.9627 14.0404 18.23 14.3076C18.4972 14.5749 18.8597 14.725 19.2376 14.725C19.6155 14.725 19.978 14.5749 20.2452 14.3076C20.5125 14.0404 20.6626 13.6779 20.6626 13.3C20.6626 12.9221 20.5125 12.5596 20.2452 12.2924C19.978 12.0251 19.6155 11.875 19.2376 11.875C18.8597 11.875 18.4972 12.0251 18.23 12.2924C17.9627 12.5596 17.8126 12.9221 17.8126 13.3ZM5.93761 13.3C5.93761 13.6779 6.08774 14.0404 6.35498 14.3076C6.62222 14.5749 6.98467 14.725 7.36261 14.725C7.74054 14.725 8.103 14.5749 8.37024 14.3076C8.63747 14.0404 8.78761 13.6779 8.78761 13.3C8.78761 12.9221 8.63747 12.5596 8.37024 12.2924C8.103 12.0251 7.74054 11.875 7.36261 11.875C6.98467 11.875 6.62222 12.0251 6.35498 12.2924C6.08774 12.5596 5.93761 12.9221 5.93761 13.3ZM25.567 8.14625C24.896 6.55203 23.9342 5.12109 22.7081 3.89203C21.4906 2.67008 20.0452 1.69878 18.4539 1.03313C16.821 0.347344 15.0873 0 13.3001 0H13.2407C11.4417 0.00890625 9.69901 0.365156 8.06026 1.06578C6.48254 1.73827 5.05073 2.71129 3.84464 3.93062C2.63042 5.15672 1.67745 6.58172 1.01839 8.17C0.335576 9.81469 -0.00879886 11.5633 0.00010739 13.3623C0.0101811 15.4241 0.497942 17.4554 1.42511 19.2969V23.8094C1.42511 24.1716 1.56899 24.5189 1.82509 24.775C2.08119 25.0311 2.42855 25.175 2.79073 25.175H7.3062C9.1477 26.1022 11.179 26.5899 13.2407 26.6H13.3031C15.0814 26.6 16.8062 26.2556 18.4301 25.5817C20.0134 24.924 21.4534 23.964 22.6695 22.7555C23.8956 21.5412 24.8604 20.1222 25.5343 18.5398C26.235 16.9011 26.5912 15.1584 26.6001 13.3594C26.609 11.5514 26.2587 9.79687 25.567 8.14625ZM21.0812 21.1494C19.0001 23.2097 16.2392 24.3437 13.3001 24.3437H13.2496C11.4595 24.3348 9.6812 23.8895 8.11073 23.0523L7.86136 22.9187H3.68136V18.7388L3.54776 18.4894C2.71058 16.9189 2.26526 15.1406 2.25636 13.3505C2.24448 10.3906 3.37558 7.61187 5.45073 5.51891C7.52292 3.42594 10.2928 2.26812 13.2526 2.25625H13.3031C14.7875 2.25625 16.2273 2.54422 17.584 3.11422C18.9081 3.66937 20.0956 4.46797 21.1168 5.48922C22.1351 6.5075 22.9367 7.69797 23.4918 9.02203C24.0678 10.3936 24.3557 11.8483 24.3498 13.3505C24.332 16.3073 23.1712 19.0772 21.0812 21.1494Z" fill="white"/>
</svg>
