<svg width="27" height="27" viewBox="0 0 27 27" fill="none" xmlns="http://www.w3.org/2000/svg">
<path d="M16.875 24.75V22.5H21.375V11.25H5.625V15.75H3.375V6.75C3.375 6.13125 3.59512 5.60175 4.03537 5.1615C4.47637 4.7205 5.00625 4.5 5.625 4.5H6.75V2.25H9V4.5H18V2.25H20.25V4.5H21.375C21.9937 4.5 22.5236 4.7205 22.9646 5.1615C23.4049 5.60175 23.625 6.13125 23.625 6.75V22.5C23.625 23.1187 23.4049 23.6486 22.9646 24.0896C22.5236 24.5299 21.9937 24.75 21.375 24.75H16.875ZM9 27L7.425 25.425L10.3219 22.5H1.125V20.25H10.3219L7.425 17.325L9 15.75L14.625 21.375L9 27ZM5.625 9H21.375V6.75H5.625V9Z" fill="white"/>
</svg>
