<svg width="31" height="31" viewBox="0 0 31 31" fill="none" xmlns="http://www.w3.org/2000/svg">
<path d="M15.2 23.4333C15.7278 23.4333 16.1766 23.2484 16.5465 22.8785C16.9163 22.5087 17.1008 22.0603 17.1 21.5333H13.3C13.3 22.0611 13.4849 22.5099 13.8548 22.8798C14.2247 23.2497 14.6731 23.4342 15.2 23.4333ZM8.86666 20.2667H21.5333V17.7333H20.2667V14.44C20.2667 13.1522 19.9339 11.9751 19.2685 10.9085C18.6031 9.84199 17.6691 9.16137 16.4667 8.86666V8.23333C16.4667 7.87444 16.3451 7.57339 16.1019 7.33019C15.8587 7.08699 15.558 6.96581 15.2 6.96666C14.8411 6.96666 14.5401 7.08826 14.2969 7.33146C14.0537 7.57466 13.9325 7.87528 13.9333 8.23333V8.86666C12.73 9.16221 11.796 9.84326 11.1315 10.9098C10.4669 11.9763 10.1342 13.1531 10.1333 14.44V17.7333H8.86666V20.2667ZM12.6667 17.7333V13.9333C12.6667 13.2367 12.9149 12.6401 13.4115 12.1435C13.908 11.647 14.5042 11.3991 15.2 11.4C15.8967 11.4 16.4933 11.6483 16.9898 12.1448C17.4863 12.6413 17.7342 13.2375 17.7333 13.9333V17.7333H12.6667ZM15.2 27.8667C13.4478 27.8667 11.8011 27.5339 10.26 26.8685C8.71888 26.2031 7.37833 25.3008 6.23833 24.1617C5.09833 23.0217 4.19604 21.6811 3.53146 20.14C2.86688 18.5989 2.53417 16.9522 2.53333 15.2C2.53333 13.4478 2.86604 11.8011 3.53146 10.26C4.19688 8.71888 5.09917 7.37833 6.23833 6.23833C7.37833 5.09833 8.71888 4.19604 10.26 3.53146C11.8011 2.86688 13.4478 2.53417 15.2 2.53333C16.9522 2.53333 18.5989 2.86604 20.14 3.53146C21.6811 4.19688 23.0217 5.09917 24.1617 6.23833C25.3017 7.37833 26.2044 8.71888 26.8698 10.26C27.5352 11.8011 27.8675 13.4478 27.8667 15.2C27.8667 16.9522 27.5339 18.5989 26.8685 20.14C26.2031 21.6811 25.3008 23.0217 24.1617 24.1617C23.0217 25.3017 21.6811 26.2044 20.14 26.8698C18.5989 27.5352 16.9522 27.8675 15.2 27.8667ZM15.2 25.3333C18.0289 25.3333 20.425 24.3517 22.3883 22.3883C24.3517 20.425 25.3333 18.0289 25.3333 15.2C25.3333 12.3711 24.3517 9.97499 22.3883 8.01166C20.425 6.04832 18.0289 5.06666 15.2 5.06666C12.3711 5.06666 9.97499 6.04832 8.01166 8.01166C6.04832 9.97499 5.06666 12.3711 5.06666 15.2C5.06666 18.0289 6.04832 20.425 8.01166 22.3883C9.97499 24.3517 12.3711 25.3333 15.2 25.3333Z" fill="white"/>
</svg>
